<mxfile host="app.diagrams.net" modified="2020-05-02T09:28:21.624Z" agent="5.0 (Macintosh; Intel Mac OS X 10_15_4) AppleWebKit/605.1.15 (KHTML, like Gecko) Version/13.1 Safari/605.1.15" etag="4ndIMxmPMuXRrG8Ta2je" version="13.0.5" type="github">
  <diagram id="lmGbopjqnGbjI0pWRiMn" name="Page-1">
    <mxGraphModel dx="1763" dy="552" grid="1" gridSize="10" guides="1" tooltips="1" connect="1" arrows="1" fold="1" page="1" pageScale="1" pageWidth="827" pageHeight="1169" math="0" shadow="0">
      <root>
        <mxCell id="0" />
        <mxCell id="1" parent="0" />
        <mxCell id="imQaMMAokuv_sUY7tQWy-1" value="" style="rounded=1;whiteSpace=wrap;html=1;" parent="1" vertex="1">
          <mxGeometry x="280" y="320" width="120" height="60" as="geometry" />
        </mxCell>
        <mxCell id="imQaMMAokuv_sUY7tQWy-2" value="" style="rounded=1;whiteSpace=wrap;html=1;" parent="1" vertex="1">
          <mxGeometry x="-380" y="190" width="120" height="60" as="geometry" />
        </mxCell>
        <mxCell id="imQaMMAokuv_sUY7tQWy-3" value="" style="rounded=1;whiteSpace=wrap;html=1;" parent="1" vertex="1">
          <mxGeometry x="280" y="120" width="120" height="60" as="geometry" />
        </mxCell>
      </root>
    </mxGraphModel>
  </diagram>
</mxfile>
